<mxfile host="app.diagrams.net" agent="Mozilla/5.0 (Windows NT 10.0; Win64; x64) AppleWebKit/537.36 (KHTML, like Gecko) Chrome/128.0.0.0 Safari/537.36" version="24.7.12">
  <diagram name="Page-1" id="jiC93UMsbRg_qKWm6CB9">
    <mxGraphModel dx="30" dy="506" grid="0" gridSize="10" guides="1" tooltips="1" connect="1" arrows="1" fold="1" page="1" pageScale="1" pageWidth="850" pageHeight="1100" background="#ffffff" math="0" shadow="0">
      <root>
        <mxCell id="0" />
        <mxCell id="1" parent="0" />
        <mxCell id="XyNK-msjaeWj9Prwr_Rq-52" style="edgeStyle=orthogonalEdgeStyle;rounded=0;orthogonalLoop=1;jettySize=auto;html=1;exitX=0.5;exitY=1;exitDx=0;exitDy=0;entryX=0.5;entryY=0;entryDx=0;entryDy=0;" edge="1" parent="1" source="XyNK-msjaeWj9Prwr_Rq-11" target="XyNK-msjaeWj9Prwr_Rq-12">
          <mxGeometry relative="1" as="geometry" />
        </mxCell>
        <mxCell id="XyNK-msjaeWj9Prwr_Rq-11" value="&lt;b&gt;View Student List&amp;nbsp;&lt;/b&gt;" style="rounded=1;whiteSpace=wrap;html=1;absoluteArcSize=1;arcSize=14;strokeWidth=2;labelBackgroundColor=none;" vertex="1" parent="1">
          <mxGeometry x="1256.75" y="800" width="106.5" height="55.75" as="geometry" />
        </mxCell>
        <mxCell id="XyNK-msjaeWj9Prwr_Rq-54" style="edgeStyle=orthogonalEdgeStyle;rounded=0;orthogonalLoop=1;jettySize=auto;html=1;exitX=0;exitY=0.5;exitDx=0;exitDy=0;entryX=1;entryY=0.5;entryDx=0;entryDy=0;" edge="1" parent="1" source="XyNK-msjaeWj9Prwr_Rq-12" target="XyNK-msjaeWj9Prwr_Rq-45">
          <mxGeometry relative="1" as="geometry" />
        </mxCell>
        <mxCell id="XyNK-msjaeWj9Prwr_Rq-12" value="&lt;b&gt;View Teacher List&lt;/b&gt;" style="rounded=1;whiteSpace=wrap;html=1;absoluteArcSize=1;arcSize=14;strokeWidth=2;labelBackgroundColor=none;" vertex="1" parent="1">
          <mxGeometry x="1256.75" y="888" width="107" height="56" as="geometry" />
        </mxCell>
        <mxCell id="XyNK-msjaeWj9Prwr_Rq-18" style="edgeStyle=orthogonalEdgeStyle;rounded=0;orthogonalLoop=1;jettySize=auto;html=1;exitX=0.5;exitY=1;exitDx=0;exitDy=0;exitPerimeter=0;entryX=0.5;entryY=0;entryDx=0;entryDy=0;" edge="1" parent="1" source="XyNK-msjaeWj9Prwr_Rq-19" target="XyNK-msjaeWj9Prwr_Rq-22">
          <mxGeometry relative="1" as="geometry" />
        </mxCell>
        <mxCell id="XyNK-msjaeWj9Prwr_Rq-19" value="&lt;b&gt;Start&lt;/b&gt;" style="strokeWidth=2;html=1;shape=mxgraph.flowchart.terminator;whiteSpace=wrap;labelBackgroundColor=none;rounded=1;" vertex="1" parent="1">
          <mxGeometry x="1106" y="180" width="100" height="60" as="geometry" />
        </mxCell>
        <mxCell id="XyNK-msjaeWj9Prwr_Rq-20" style="edgeStyle=elbowEdgeStyle;rounded=1;orthogonalLoop=1;jettySize=auto;html=1;exitX=0;exitY=0.5;exitDx=0;exitDy=0;labelBackgroundColor=none;fontColor=default;" edge="1" parent="1" source="XyNK-msjaeWj9Prwr_Rq-26">
          <mxGeometry relative="1" as="geometry">
            <mxPoint x="1157" y="254" as="targetPoint" />
            <Array as="points">
              <mxPoint x="1041" y="325" />
            </Array>
            <mxPoint x="1101" y="381" as="sourcePoint" />
          </mxGeometry>
        </mxCell>
        <mxCell id="XyNK-msjaeWj9Prwr_Rq-21" style="edgeStyle=orthogonalEdgeStyle;rounded=0;orthogonalLoop=1;jettySize=auto;html=1;exitX=0.5;exitY=1;exitDx=0;exitDy=0;entryX=0.5;entryY=0;entryDx=0;entryDy=0;" edge="1" parent="1" source="XyNK-msjaeWj9Prwr_Rq-22" target="XyNK-msjaeWj9Prwr_Rq-26">
          <mxGeometry relative="1" as="geometry" />
        </mxCell>
        <mxCell id="XyNK-msjaeWj9Prwr_Rq-22" value="&lt;b&gt;Login&lt;/b&gt;" style="rhombus;whiteSpace=wrap;html=1;shadow=0;fontFamily=Helvetica;fontSize=12;align=center;strokeWidth=1;spacing=6;spacingTop=-4;labelBackgroundColor=none;rounded=1;" vertex="1" parent="1">
          <mxGeometry x="1115.25" y="292" width="81.5" height="80" as="geometry" />
        </mxCell>
        <mxCell id="XyNK-msjaeWj9Prwr_Rq-23" value="&lt;b&gt;NO&lt;/b&gt;" style="text;html=1;align=center;verticalAlign=middle;resizable=0;points=[];autosize=1;strokeColor=none;fillColor=none;labelBackgroundColor=none;rounded=1;" vertex="1" parent="1">
          <mxGeometry x="993" y="302" width="40" height="30" as="geometry" />
        </mxCell>
        <mxCell id="XyNK-msjaeWj9Prwr_Rq-24" value="&lt;b&gt;Yes&lt;/b&gt;" style="text;html=1;align=center;verticalAlign=middle;resizable=0;points=[];autosize=1;strokeColor=none;fillColor=none;fontSize=16;labelBackgroundColor=none;rounded=1;" vertex="1" parent="1">
          <mxGeometry x="1092.5" y="459" width="50" height="30" as="geometry" />
        </mxCell>
        <mxCell id="XyNK-msjaeWj9Prwr_Rq-25" style="edgeStyle=orthogonalEdgeStyle;rounded=0;orthogonalLoop=1;jettySize=auto;html=1;exitX=0.5;exitY=1;exitDx=0;exitDy=0;entryX=0.5;entryY=0;entryDx=0;entryDy=0;" edge="1" parent="1" source="XyNK-msjaeWj9Prwr_Rq-26" target="XyNK-msjaeWj9Prwr_Rq-44">
          <mxGeometry relative="1" as="geometry" />
        </mxCell>
        <mxCell id="XyNK-msjaeWj9Prwr_Rq-26" value="&lt;b&gt;Enter email and password&lt;/b&gt;" style="shape=parallelogram;perimeter=parallelogramPerimeter;whiteSpace=wrap;html=1;fixedSize=1;labelBackgroundColor=none;rounded=1;" vertex="1" parent="1">
          <mxGeometry x="1090.5" y="398" width="131" height="53" as="geometry" />
        </mxCell>
        <mxCell id="XyNK-msjaeWj9Prwr_Rq-27" style="edgeStyle=orthogonalEdgeStyle;rounded=0;orthogonalLoop=1;jettySize=auto;html=1;exitX=0.5;exitY=1;exitDx=0;exitDy=0;entryX=0.5;entryY=0;entryDx=0;entryDy=0;" edge="1" parent="1" source="XyNK-msjaeWj9Prwr_Rq-28" target="XyNK-msjaeWj9Prwr_Rq-36">
          <mxGeometry relative="1" as="geometry" />
        </mxCell>
        <mxCell id="XyNK-msjaeWj9Prwr_Rq-28" value="&lt;b&gt;View &lt;/b&gt;&lt;b style=&quot;background-color: initial;&quot;&gt;Notice Board&lt;/b&gt;" style="rounded=1;whiteSpace=wrap;html=1;absoluteArcSize=1;arcSize=14;strokeWidth=2;labelBackgroundColor=none;" vertex="1" parent="1">
          <mxGeometry x="1105" y="620" width="100" height="53" as="geometry" />
        </mxCell>
        <mxCell id="XyNK-msjaeWj9Prwr_Rq-29" style="edgeStyle=orthogonalEdgeStyle;rounded=0;orthogonalLoop=1;jettySize=auto;html=1;exitX=0.5;exitY=1;exitDx=0;exitDy=0;entryX=0.5;entryY=0;entryDx=0;entryDy=0;" edge="1" parent="1" source="XyNK-msjaeWj9Prwr_Rq-30" target="XyNK-msjaeWj9Prwr_Rq-40">
          <mxGeometry relative="1" as="geometry" />
        </mxCell>
        <mxCell id="XyNK-msjaeWj9Prwr_Rq-30" value="&lt;b&gt;View Subject List&amp;nbsp;&lt;/b&gt;" style="rounded=1;whiteSpace=wrap;html=1;absoluteArcSize=1;arcSize=14;strokeWidth=2;labelBackgroundColor=none;" vertex="1" parent="1">
          <mxGeometry x="1250" y="621.5" width="120" height="52" as="geometry" />
        </mxCell>
        <mxCell id="XyNK-msjaeWj9Prwr_Rq-31" style="edgeStyle=orthogonalEdgeStyle;rounded=0;orthogonalLoop=1;jettySize=auto;html=1;exitX=0.5;exitY=1;exitDx=0;exitDy=0;entryX=0.5;entryY=0;entryDx=0;entryDy=0;" edge="1" parent="1" source="XyNK-msjaeWj9Prwr_Rq-32" target="XyNK-msjaeWj9Prwr_Rq-45">
          <mxGeometry relative="1" as="geometry" />
        </mxCell>
        <mxCell id="XyNK-msjaeWj9Prwr_Rq-32" value="&lt;b&gt;View Self Message&lt;/b&gt;" style="rounded=1;whiteSpace=wrap;html=1;absoluteArcSize=1;arcSize=14;strokeWidth=2;labelBackgroundColor=none;" vertex="1" parent="1">
          <mxGeometry x="1095" y="806" width="118" height="53" as="geometry" />
        </mxCell>
        <mxCell id="XyNK-msjaeWj9Prwr_Rq-33" style="edgeStyle=orthogonalEdgeStyle;rounded=0;orthogonalLoop=1;jettySize=auto;html=1;exitX=0.5;exitY=1;exitDx=0;exitDy=0;entryX=0.5;entryY=0;entryDx=0;entryDy=0;" edge="1" parent="1" source="XyNK-msjaeWj9Prwr_Rq-34" target="XyNK-msjaeWj9Prwr_Rq-38">
          <mxGeometry relative="1" as="geometry" />
        </mxCell>
        <mxCell id="XyNK-msjaeWj9Prwr_Rq-34" value="&lt;b&gt;View Profile&lt;/b&gt;" style="rounded=1;whiteSpace=wrap;html=1;absoluteArcSize=1;arcSize=14;strokeWidth=2;labelBackgroundColor=none;" vertex="1" parent="1">
          <mxGeometry x="960" y="621.5" width="100" height="53" as="geometry" />
        </mxCell>
        <mxCell id="XyNK-msjaeWj9Prwr_Rq-35" style="edgeStyle=orthogonalEdgeStyle;rounded=0;orthogonalLoop=1;jettySize=auto;html=1;exitX=0.5;exitY=1;exitDx=0;exitDy=0;" edge="1" parent="1" source="XyNK-msjaeWj9Prwr_Rq-36" target="XyNK-msjaeWj9Prwr_Rq-32">
          <mxGeometry relative="1" as="geometry" />
        </mxCell>
        <mxCell id="XyNK-msjaeWj9Prwr_Rq-36" value="&lt;b&gt;Send Request Message to Admin&amp;nbsp;&amp;nbsp;&lt;/b&gt;" style="rounded=1;whiteSpace=wrap;html=1;absoluteArcSize=1;arcSize=14;strokeWidth=2;labelBackgroundColor=none;" vertex="1" parent="1">
          <mxGeometry x="1105" y="710" width="99" height="55" as="geometry" />
        </mxCell>
        <mxCell id="XyNK-msjaeWj9Prwr_Rq-50" style="edgeStyle=orthogonalEdgeStyle;rounded=0;orthogonalLoop=1;jettySize=auto;html=1;exitX=0.5;exitY=1;exitDx=0;exitDy=0;entryX=0;entryY=0.5;entryDx=0;entryDy=0;" edge="1" parent="1" source="XyNK-msjaeWj9Prwr_Rq-38" target="XyNK-msjaeWj9Prwr_Rq-45">
          <mxGeometry relative="1" as="geometry" />
        </mxCell>
        <mxCell id="XyNK-msjaeWj9Prwr_Rq-38" value="&lt;b&gt;Change Password&lt;/b&gt;" style="rounded=1;whiteSpace=wrap;html=1;absoluteArcSize=1;arcSize=14;strokeWidth=2;labelBackgroundColor=none;" vertex="1" parent="1">
          <mxGeometry x="960" y="730" width="100" height="52" as="geometry" />
        </mxCell>
        <mxCell id="XyNK-msjaeWj9Prwr_Rq-51" style="edgeStyle=orthogonalEdgeStyle;rounded=0;orthogonalLoop=1;jettySize=auto;html=1;exitX=0.5;exitY=1;exitDx=0;exitDy=0;entryX=0.5;entryY=0;entryDx=0;entryDy=0;" edge="1" parent="1" source="XyNK-msjaeWj9Prwr_Rq-40" target="XyNK-msjaeWj9Prwr_Rq-11">
          <mxGeometry relative="1" as="geometry" />
        </mxCell>
        <mxCell id="XyNK-msjaeWj9Prwr_Rq-40" value="&lt;b&gt;View Timetable&lt;/b&gt;" style="rounded=1;whiteSpace=wrap;html=1;absoluteArcSize=1;arcSize=14;strokeWidth=2;" vertex="1" parent="1">
          <mxGeometry x="1260" y="712" width="100" height="55" as="geometry" />
        </mxCell>
        <mxCell id="XyNK-msjaeWj9Prwr_Rq-41" style="edgeStyle=orthogonalEdgeStyle;rounded=0;orthogonalLoop=1;jettySize=auto;html=1;exitX=0.5;exitY=1;exitDx=0;exitDy=0;entryX=0.5;entryY=0;entryDx=0;entryDy=0;" edge="1" parent="1" source="XyNK-msjaeWj9Prwr_Rq-44" target="XyNK-msjaeWj9Prwr_Rq-28">
          <mxGeometry relative="1" as="geometry" />
        </mxCell>
        <mxCell id="XyNK-msjaeWj9Prwr_Rq-42" style="edgeStyle=orthogonalEdgeStyle;rounded=0;orthogonalLoop=1;jettySize=auto;html=1;exitX=1;exitY=0.5;exitDx=0;exitDy=0;entryX=0.5;entryY=0;entryDx=0;entryDy=0;" edge="1" parent="1" source="XyNK-msjaeWj9Prwr_Rq-44" target="XyNK-msjaeWj9Prwr_Rq-30">
          <mxGeometry relative="1" as="geometry" />
        </mxCell>
        <mxCell id="XyNK-msjaeWj9Prwr_Rq-43" style="edgeStyle=orthogonalEdgeStyle;rounded=0;orthogonalLoop=1;jettySize=auto;html=1;exitX=0;exitY=0.5;exitDx=0;exitDy=0;entryX=0.5;entryY=0;entryDx=0;entryDy=0;" edge="1" parent="1" source="XyNK-msjaeWj9Prwr_Rq-44" target="XyNK-msjaeWj9Prwr_Rq-34">
          <mxGeometry relative="1" as="geometry" />
        </mxCell>
        <mxCell id="XyNK-msjaeWj9Prwr_Rq-44" value="&lt;b&gt;Teacher Dashboard&lt;/b&gt;" style="rounded=1;whiteSpace=wrap;html=1;absoluteArcSize=1;arcSize=14;strokeWidth=2;" vertex="1" parent="1">
          <mxGeometry x="1105.75" y="510" width="100" height="59" as="geometry" />
        </mxCell>
        <mxCell id="XyNK-msjaeWj9Prwr_Rq-45" value="&lt;b&gt;Log Out&lt;/b&gt;" style="rounded=1;whiteSpace=wrap;html=1;absoluteArcSize=1;arcSize=14;strokeWidth=2;" vertex="1" parent="1">
          <mxGeometry x="1104" y="891" width="100" height="50" as="geometry" />
        </mxCell>
        <mxCell id="XyNK-msjaeWj9Prwr_Rq-46" value="&lt;b&gt;End&lt;/b&gt;" style="strokeWidth=2;html=1;shape=mxgraph.flowchart.terminator;whiteSpace=wrap;labelBackgroundColor=none;rounded=1;" vertex="1" parent="1">
          <mxGeometry x="1104" y="990" width="100" height="60" as="geometry" />
        </mxCell>
        <mxCell id="XyNK-msjaeWj9Prwr_Rq-47" style="edgeStyle=orthogonalEdgeStyle;rounded=0;orthogonalLoop=1;jettySize=auto;html=1;exitX=0.5;exitY=1;exitDx=0;exitDy=0;entryX=0.5;entryY=0;entryDx=0;entryDy=0;entryPerimeter=0;" edge="1" parent="1" source="XyNK-msjaeWj9Prwr_Rq-45" target="XyNK-msjaeWj9Prwr_Rq-46">
          <mxGeometry relative="1" as="geometry" />
        </mxCell>
      </root>
    </mxGraphModel>
  </diagram>
</mxfile>
